<svg id="svg" version="1.1" xmlns="http://www.w3.org/2000/svg" width="400" height="393.1623931623932" viewBox="0, 0, 400,393.1623931623932"><g id="svgg"><path id="path0" d="M53.097 2.333 C 53.097 2.888,54.476 3.210,55.620 2.923 C 57.236 2.518,56.802 1.967,54.867 1.967 C 53.894 1.967,53.097 2.132,53.097 2.333 M47.629 3.297 C 47.281 3.717,47.315 3.894,47.778 4.072 C 48.595 4.385,49.558 3.969,49.558 3.301 C 49.558 2.594,48.215 2.591,47.629 3.297 M44.543 4.194 C 43.858 4.470,43.927 5.113,44.641 5.113 C 44.966 5.113,45.231 4.848,45.231 4.523 C 45.231 4.199,45.187 3.947,45.133 3.964 C 45.079 3.981,44.813 4.085,44.543 4.194 M40.511 5.703 C 40.511 6.028,40.836 6.293,41.232 6.293 C 41.629 6.293,41.953 6.028,41.953 5.703 C 41.953 5.379,41.629 5.113,41.232 5.113 C 40.836 5.113,40.511 5.379,40.511 5.703 M37.616 6.883 C 37.459 7.291,37.642 7.473,38.212 7.473 C 38.898 7.473,38.953 7.375,38.545 6.883 C 38.275 6.559,38.007 6.293,37.949 6.293 C 37.890 6.293,37.740 6.559,37.616 6.883 M35.255 8.065 C 35.118 8.422,35.256 8.653,35.607 8.653 C 36.243 8.653,36.388 8.038,35.833 7.695 C 35.639 7.575,35.379 7.742,35.255 8.065 M32.907 8.915 C 32.455 9.368,32.621 9.833,33.235 9.833 C 33.559 9.833,33.825 9.567,33.825 9.243 C 33.825 8.629,33.360 8.463,32.907 8.915 M29.105 11.603 C 29.105 11.927,29.371 12.193,29.695 12.193 C 30.020 12.193,30.285 11.927,30.285 11.603 C 30.285 11.278,30.020 11.013,29.695 11.013 C 29.371 11.013,29.105 11.278,29.105 11.603 M26.996 12.783 C 26.872 13.107,26.484 13.373,26.135 13.373 C 25.786 13.373,25.570 13.583,25.656 13.840 C 25.899 14.569,26.745 14.690,26.745 13.995 C 26.745 13.653,27.011 13.373,27.335 13.373 C 27.660 13.373,27.925 13.107,27.925 12.783 C 27.925 12.458,27.767 12.193,27.574 12.193 C 27.381 12.193,27.121 12.458,26.996 12.783 M22.026 16.519 C 21.362 17.168,20.648 17.699,20.439 17.699 C 20.230 17.699,20.059 17.876,20.059 18.092 C 20.059 18.309,19.705 18.840,19.272 19.272 C 18.840 19.705,18.309 20.059,18.092 20.059 C 17.876 20.059,17.699 20.324,17.699 20.649 C 17.699 20.973,17.434 21.239,17.109 21.239 C 16.785 21.239,16.519 21.504,16.519 21.829 C 16.519 22.153,16.254 22.419,15.929 22.419 C 15.605 22.419,15.339 22.684,15.339 23.009 C 15.339 23.333,15.162 23.599,14.946 23.599 C 14.730 23.599,14.553 23.864,14.553 24.189 C 14.553 24.513,14.641 24.779,14.749 24.779 C 15.109 24.779,16.519 23.212,16.519 22.812 C 16.519 22.596,16.785 22.419,17.109 22.419 C 17.434 22.419,17.699 22.153,17.699 21.829 C 17.699 21.504,17.965 21.239,18.289 21.239 C 18.614 21.239,18.879 20.973,18.879 20.649 C 18.879 20.324,19.145 20.059,19.469 20.059 C 19.794 20.059,20.059 19.794,20.059 19.469 C 20.059 19.145,20.324 18.879,20.649 18.879 C 20.973 18.879,21.239 18.614,21.239 18.289 C 21.239 17.965,21.504 17.699,21.829 17.699 C 22.153 17.699,22.419 17.434,22.419 17.109 C 22.419 16.785,22.684 16.519,23.009 16.519 C 23.333 16.519,23.599 16.254,23.599 15.929 C 23.599 15.102,23.398 15.178,22.026 16.519 M397.247 74.742 C 397.247 111.705,397.380 130.580,397.640 130.580 C 397.895 130.580,398.035 125.497,398.038 116.126 C 398.041 108.176,398.154 83.160,398.290 60.535 C 398.518 22.631,398.486 19.379,397.892 19.151 C 397.296 18.923,397.247 23.149,397.247 74.742 M11.013 28.515 C 11.013 28.840,11.278 29.105,11.603 29.105 C 11.927 29.105,12.193 28.840,12.193 28.515 C 12.193 28.191,11.927 27.925,11.603 27.925 C 11.278 27.925,11.013 28.191,11.013 28.515 M8.653 32.055 C 8.653 32.380,8.918 32.645,9.243 32.645 C 9.567 32.645,9.833 32.380,9.833 32.055 C 9.833 31.731,9.567 31.465,9.243 31.465 C 8.918 31.465,8.653 31.731,8.653 32.055 M217.016 34.442 C 216.866 34.592,216.896 35.001,217.082 35.352 C 218.327 37.690,218.314 54.846,217.065 58.131 C 216.873 58.636,216.716 59.459,216.716 59.961 C 216.716 60.953,216.219 62.739,214.052 69.540 C 213.273 71.986,212.492 74.076,212.316 74.185 C 212.140 74.294,211.996 74.640,211.996 74.954 C 211.996 75.641,207.853 84.080,206.366 86.423 C 205.785 87.338,205.310 88.186,205.310 88.307 C 205.310 88.428,204.979 89.007,204.575 89.593 C 204.172 90.179,202.800 92.252,201.529 94.199 C 200.257 96.146,198.817 98.179,198.330 98.718 C 197.842 99.256,197.443 99.804,197.443 99.936 C 197.443 100.067,197.073 100.600,196.619 101.120 C 196.166 101.640,195.149 102.852,194.358 103.814 C 188.710 110.686,181.685 117.910,175.384 123.329 C 173.136 125.262,171.015 127.109,170.671 127.434 C 167.239 130.673,151.016 142.514,143.336 147.385 C 141.158 148.766,129.120 156.031,128.614 156.269 C 128.289 156.422,127.493 156.894,126.844 157.317 C 126.195 157.741,125.133 158.350,124.484 158.671 C 123.835 158.992,122.330 159.813,121.141 160.496 C 118.782 161.851,116.531 163.099,112.291 165.406 C 110.777 166.229,109.007 167.215,108.358 167.596 C 107.709 167.977,106.382 168.691,105.408 169.182 C 104.435 169.673,102.222 170.859,100.492 171.818 C 98.761 172.776,96.460 174.043,95.379 174.633 C 94.297 175.222,92.793 176.053,92.035 176.478 C 91.278 176.903,89.243 178.018,87.512 178.956 C 85.782 179.893,83.706 181.074,82.899 181.579 C 82.092 182.084,81.343 182.498,81.234 182.498 C 81.125 182.498,79.880 183.206,78.466 184.071 C 77.052 184.936,75.819 185.644,75.726 185.644 C 75.632 185.644,74.769 186.175,73.807 186.824 C 72.846 187.473,71.960 188.004,71.838 188.004 C 71.717 188.004,70.946 188.464,70.126 189.027 C 69.305 189.589,68.279 190.216,67.847 190.420 C 66.017 191.282,55.259 198.425,53.888 199.688 C 53.349 200.184,52.788 200.590,52.640 200.590 C 51.823 200.590,43.472 207.788,38.534 212.747 C 26.157 225.179,21.558 235.204,21.560 249.754 C 21.561 258.094,22.212 262.137,24.602 268.633 C 25.905 272.177,30.162 282.268,31.293 284.496 C 31.604 285.108,31.858 285.776,31.858 285.979 C 31.858 286.183,32.374 287.451,33.004 288.799 C 33.634 290.146,34.506 292.045,34.942 293.019 C 35.378 293.992,36.380 296.205,37.170 297.935 C 37.959 299.666,38.881 301.701,39.218 302.458 C 41.193 306.891,48.774 322.764,49.644 324.287 C 49.891 324.720,50.645 326.136,51.319 327.434 C 52.436 329.584,53.658 331.697,54.968 333.742 C 55.240 334.166,55.651 334.877,55.881 335.321 C 57.126 337.723,57.750 337.170,57.523 333.865 C 57.146 328.371,58.542 320.760,61.081 314.460 C 61.645 313.059,66.277 303.775,66.969 302.659 C 68.063 300.892,72.172 294.774,72.387 294.592 C 72.514 294.484,73.547 293.156,74.683 291.642 C 77.719 287.596,81.977 282.925,88.489 276.500 C 94.933 270.141,95.069 270.017,101.676 264.496 C 106.787 260.225,107.658 259.542,113.041 255.574 C 115.008 254.124,116.829 252.755,117.086 252.531 C 118.133 251.626,126.307 246.214,126.629 246.214 C 126.819 246.214,127.034 246.082,127.106 245.919 C 127.221 245.661,129.524 244.041,131.431 242.877 C 132.357 242.312,136.545 239.802,137.346 239.331 C 137.715 239.115,139.219 238.206,140.689 237.311 C 142.160 236.416,143.982 235.336,144.739 234.910 C 145.497 234.484,147.502 233.313,149.197 232.308 C 150.891 231.304,152.349 230.482,152.437 230.482 C 152.525 230.482,154.385 229.420,156.571 228.122 C 158.757 226.824,160.614 225.762,160.698 225.762 C 160.783 225.762,161.961 225.086,163.317 224.259 C 164.672 223.432,167.021 222.074,168.535 221.241 C 170.049 220.408,171.642 219.532,172.075 219.293 C 172.507 219.054,173.610 218.377,174.525 217.787 C 175.440 217.198,176.299 216.716,176.435 216.716 C 176.570 216.716,177.467 216.185,178.429 215.536 C 179.390 214.887,180.275 214.356,180.395 214.356 C 180.515 214.356,181.400 213.825,182.362 213.176 C 183.323 212.527,184.207 211.996,184.325 211.996 C 184.529 211.996,186.762 210.562,194.297 205.594 C 206.422 197.599,217.494 188.224,224.602 179.932 C 230.505 173.046,236.558 163.273,238.969 156.735 C 239.368 155.654,239.921 154.326,240.199 153.786 C 240.476 153.245,240.704 152.503,240.706 152.137 C 240.707 151.771,240.865 151.375,241.056 151.257 C 241.247 151.139,241.491 150.553,241.598 149.956 C 241.705 149.358,242.172 147.453,242.637 145.723 C 244.828 137.564,245.809 121.528,244.609 113.471 C 244.383 111.957,244.034 109.390,243.833 107.768 C 243.122 102.035,241.056 92.279,239.334 86.529 C 238.978 85.339,238.547 83.835,238.377 83.186 C 237.864 81.236,234.748 71.871,234.168 70.540 C 233.871 69.859,233.628 69.112,233.628 68.882 C 233.628 68.652,233.338 67.794,232.984 66.975 C 232.629 66.156,232.197 65.133,232.022 64.700 C 231.573 63.587,230.112 60.129,229.695 59.194 C 229.502 58.761,229.006 57.611,228.592 56.637 C 228.179 55.664,227.422 53.894,226.911 52.704 C 225.198 48.717,218.686 35.993,218.155 35.595 C 217.866 35.379,217.553 34.969,217.460 34.685 C 217.366 34.401,217.167 34.292,217.016 34.442 M6.579 36.553 C 6.441 37.080,6.546 37.243,6.928 37.097 C 7.547 36.859,7.642 36.336,7.124 36.016 C 6.933 35.897,6.687 36.139,6.579 36.553 M4.425 40.772 C 3.740 41.048,3.809 41.691,4.523 41.691 C 4.848 41.691,5.113 41.426,5.113 41.101 C 5.113 40.777,5.069 40.525,5.015 40.542 C 4.961 40.559,4.695 40.663,4.425 40.772 M3.015 43.432 C 2.897 43.741,3.038 44.191,3.328 44.432 C 3.723 44.759,3.902 44.742,4.034 44.363 C 4.433 43.215,3.445 42.313,3.015 43.432 M1.967 47.394 C 1.967 47.935,2.129 48.378,2.327 48.378 C 2.788 48.378,3.084 47.541,2.850 46.903 C 2.537 46.051,1.967 46.369,1.967 47.394 M0.787 51.983 C 0.787 52.711,0.991 53.097,1.377 53.097 C 1.762 53.097,1.967 52.711,1.967 51.983 C 1.967 51.255,1.762 50.869,1.377 50.869 C 0.991 50.869,0.787 51.255,0.787 51.983 M0.000 59.980 C 0.000 61.947,0.162 63.324,0.393 63.324 C 0.625 63.324,0.787 61.947,0.787 59.980 C 0.787 58.014,0.625 56.637,0.393 56.637 C 0.162 56.637,0.000 58.014,0.000 59.980 M0.000 127.040 C 0.000 164.012,0.133 182.891,0.393 182.891 C 0.654 182.891,0.787 164.012,0.787 127.040 C 0.787 90.069,0.654 71.190,0.393 71.190 C 0.133 71.190,0.000 90.069,0.000 127.040 M288.467 114.583 C 288.333 114.932,288.409 116.417,288.636 117.884 C 290.984 133.070,286.428 151.368,276.172 167.945 C 272.805 173.387,268.427 179.601,266.022 182.351 C 265.619 182.811,264.582 184.045,263.717 185.093 C 258.863 190.973,252.380 197.455,244.678 204.130 C 243.306 205.320,241.983 206.470,241.740 206.686 C 240.213 208.045,234.702 212.327,230.492 215.427 C 227.782 217.422,225.388 219.192,225.172 219.360 C 224.283 220.051,213.649 227.028,211.529 228.311 C 211.165 228.531,208.864 229.935,206.416 231.429 C 203.969 232.924,201.179 234.586,200.217 235.123 C 199.255 235.661,197.662 236.572,196.677 237.150 C 195.693 237.727,194.621 238.323,194.297 238.474 C 193.972 238.625,193.158 239.082,192.488 239.490 C 191.817 239.899,190.136 240.847,188.751 241.598 C 187.367 242.348,185.393 243.428,184.366 243.998 C 183.338 244.568,181.657 245.501,180.629 246.070 C 177.071 248.043,174.418 249.473,170.698 251.421 C 168.643 252.497,166.785 253.514,166.568 253.680 C 166.352 253.845,165.025 254.599,163.618 255.355 C 162.212 256.110,160.221 257.194,159.194 257.764 C 158.166 258.334,156.485 259.261,155.457 259.823 C 154.430 260.385,152.592 261.447,151.374 262.183 C 150.156 262.918,149.064 263.520,148.947 263.520 C 148.489 263.520,131.323 274.117,129.990 275.223 C 129.774 275.402,128.712 276.150,127.630 276.885 C 125.194 278.539,118.199 283.798,116.649 285.141 C 111.087 289.957,108.582 292.374,106.116 295.305 C 104.537 297.181,102.847 299.159,102.360 299.699 C 101.873 300.238,101.475 300.789,101.475 300.921 C 101.475 301.053,100.672 302.383,99.691 303.875 C 94.422 311.890,92.305 319.266,92.365 329.400 C 92.424 339.454,94.255 346.345,100.333 359.382 C 100.961 360.730,101.475 362.066,101.475 362.352 C 101.475 362.637,101.639 363.039,101.840 363.245 C 102.041 363.450,102.554 364.503,102.981 365.585 C 103.700 367.407,104.904 370.136,107.144 375.025 C 107.640 376.106,108.533 378.053,109.128 379.351 C 109.723 380.649,110.531 382.419,110.924 383.284 C 113.802 389.624,112.283 388.977,124.287 388.976 C 134.820 388.975,134.009 389.197,135.743 385.841 C 136.470 384.435,137.287 383.050,137.559 382.764 C 137.831 382.479,138.053 382.066,138.053 381.848 C 138.053 381.493,142.626 374.524,143.176 374.041 C 143.299 373.933,144.268 372.694,145.329 371.288 C 150.462 364.485,160.221 354.280,167.748 347.844 C 169.479 346.364,170.983 345.060,171.091 344.946 C 171.670 344.337,176.038 340.832,178.958 338.632 C 180.796 337.247,182.742 335.710,183.280 335.215 C 183.819 334.721,184.367 334.317,184.498 334.317 C 184.630 334.317,185.102 334.007,185.547 333.628 C 185.993 333.250,186.746 332.675,187.221 332.350 C 187.696 332.026,189.485 330.742,191.196 329.499 C 192.908 328.255,194.379 327.237,194.466 327.237 C 194.552 327.237,196.010 326.304,197.705 325.163 C 202.160 322.166,214.317 314.720,216.323 313.761 C 216.863 313.502,217.394 313.174,217.502 313.032 C 217.611 312.891,218.938 312.108,220.452 311.293 C 221.967 310.478,223.825 309.424,224.582 308.950 C 225.866 308.146,228.087 306.890,231.858 304.835 C 232.724 304.364,233.963 303.646,234.612 303.240 C 235.926 302.418,236.555 302.062,240.480 299.920 C 241.977 299.103,244.326 297.747,245.699 296.906 C 247.071 296.066,248.272 295.379,248.367 295.379 C 248.462 295.379,249.211 294.918,250.032 294.356 C 250.853 293.793,251.878 293.171,252.311 292.973 C 252.743 292.776,253.564 292.307,254.135 291.931 C 254.705 291.556,256.740 290.287,258.658 289.111 C 260.575 287.936,262.232 286.872,262.340 286.748 C 262.529 286.530,265.377 284.607,266.732 283.782 C 268.105 282.946,272.994 279.557,273.458 279.120 C 273.725 278.868,274.666 278.172,275.549 277.573 C 276.433 276.974,277.496 276.177,277.913 275.803 C 278.329 275.429,280.717 273.408,283.218 271.311 C 288.175 267.157,294.437 260.691,298.002 256.047 C 299.248 254.425,300.363 253.009,300.481 252.901 C 301.397 252.059,305.777 244.768,307.805 240.708 C 310.681 234.952,313.907 225.274,314.687 220.059 C 314.849 218.977,315.167 216.853,315.393 215.339 C 315.912 211.872,315.932 195.409,315.423 191.740 C 315.212 190.226,314.946 188.102,314.832 187.021 C 314.529 184.156,312.737 174.917,311.703 170.895 C 310.693 166.963,309.821 163.781,309.333 162.242 C 309.059 161.377,308.513 159.607,308.120 158.309 C 307.728 157.011,307.282 155.772,307.131 155.556 C 306.979 155.339,306.731 154.497,306.579 153.683 C 306.427 152.869,306.145 152.107,305.953 151.988 C 305.762 151.870,305.605 151.488,305.605 151.141 C 305.605 150.559,303.860 145.746,302.642 142.970 C 302.357 142.321,301.737 140.816,301.263 139.626 C 300.790 138.437,299.957 136.490,299.413 135.300 C 298.870 134.110,298.285 132.783,298.114 132.350 C 297.164 129.949,289.466 114.704,288.935 114.173 C 288.812 114.049,288.601 114.234,288.467 114.583 M344.342 220.747 C 344.346 231.807,344.196 233.230,342.341 239.672 C 342.038 240.724,341.790 241.832,341.790 242.135 C 341.790 242.438,341.628 242.993,341.430 243.368 C 341.233 243.744,340.500 245.644,339.802 247.591 C 331.307 271.281,310.609 294.917,278.943 317.088 C 277.150 318.344,275.606 319.371,275.513 319.371 C 275.318 319.371,271.684 321.815,271.386 322.146 C 271.278 322.266,269.632 323.328,267.727 324.506 C 265.823 325.684,263.788 326.947,263.204 327.313 C 262.621 327.680,261.701 328.225,261.160 328.525 C 260.619 328.826,257.699 330.496,254.671 332.236 C 246.727 336.802,245.320 337.588,239.135 340.909 C 237.729 341.665,236.401 342.410,236.185 342.566 C 235.969 342.722,234.066 343.764,231.958 344.883 C 229.849 346.002,227.372 347.332,226.452 347.839 C 225.532 348.346,223.775 349.313,222.548 349.989 C 221.321 350.665,219.551 351.632,218.615 352.138 C 217.679 352.644,215.320 353.951,213.373 355.042 C 211.426 356.134,208.948 357.522,207.866 358.127 C 206.785 358.733,204.602 359.994,203.016 360.931 C 201.429 361.869,199.984 362.635,199.804 362.635 C 199.623 362.635,199.417 362.768,199.344 362.930 C 199.272 363.092,197.620 364.186,195.674 365.361 C 187.515 370.284,176.250 378.140,172.812 381.303 C 172.568 381.527,170.754 383.108,168.780 384.815 C 166.807 386.523,165.192 388.063,165.192 388.239 C 165.192 388.962,170.686 389.012,238.545 388.903 L 309.341 388.791 311.701 387.229 C 312.999 386.371,314.367 385.486,314.741 385.263 C 321.442 381.266,329.565 375.470,337.766 368.835 C 341.206 366.051,349.240 358.144,351.849 354.972 C 352.914 353.677,354.106 352.261,354.499 351.825 C 360.278 345.398,367.067 331.307,369.850 319.961 C 371.723 312.321,372.377 291.823,370.972 284.759 C 370.564 282.706,370.015 279.492,369.328 275.123 C 368.835 271.991,367.435 266.417,364.983 257.817 C 363.055 251.058,358.495 238.718,355.498 232.152 C 354.881 230.800,354.376 229.595,354.376 229.474 C 354.376 228.934,344.912 210.029,344.641 210.029 C 344.474 210.029,344.339 214.853,344.342 220.747 M398.189 243.287 C 397.894 244.462,398.315 334.336,398.617 334.638 C 399.264 335.285,400.064 247.004,399.441 243.685 C 399.133 242.043,398.548 241.857,398.189 243.287 M0.787 343.517 C 0.787 386.644,0.857 392.470,1.377 392.669 C 1.899 392.870,1.967 387.273,1.967 343.744 C 1.967 300.315,1.898 294.592,1.377 294.592 C 0.855 294.592,0.787 300.290,0.787 343.517 M397.247 340.065 C 397.247 340.959,397.413 341.406,397.708 341.308 C 398.431 341.067,398.538 339.163,397.844 338.897 C 397.379 338.718,397.247 338.977,397.247 340.065 M396.067 344.969 C 396.067 345.764,396.236 346.125,396.559 346.018 C 397.238 345.792,397.274 343.756,396.598 343.756 C 396.267 343.756,396.067 344.213,396.067 344.969 M394.887 348.673 C 394.887 348.997,395.045 349.263,395.238 349.263 C 395.431 349.263,395.691 348.997,395.816 348.673 C 395.954 348.313,395.816 348.083,395.465 348.083 C 395.147 348.083,394.887 348.348,394.887 348.673 M393.707 351.032 C 393.707 351.357,393.943 351.622,394.231 351.622 C 394.520 351.622,394.756 351.357,394.756 351.032 C 394.756 350.708,394.520 350.442,394.231 350.442 C 393.943 350.442,393.707 350.708,393.707 351.032 M392.527 354.363 C 392.527 354.875,392.719 355.064,393.092 354.921 C 393.403 354.801,393.561 354.453,393.443 354.146 C 393.129 353.326,392.527 353.468,392.527 354.363 M391.347 356.735 C 391.347 357.168,391.429 357.522,391.530 357.522 C 391.630 357.522,391.902 357.168,392.134 356.735 C 392.470 356.108,392.433 355.949,391.951 355.949 C 391.609 355.949,391.347 356.290,391.347 356.735 M390.167 358.899 C 390.167 359.223,389.902 359.489,389.577 359.489 C 389.253 359.489,388.987 359.767,388.987 360.107 C 388.987 360.669,389.043 360.669,389.605 360.107 C 389.945 359.767,390.471 359.489,390.773 359.489 C 391.100 359.489,391.231 359.250,391.096 358.899 C 390.972 358.574,390.712 358.309,390.518 358.309 C 390.325 358.309,390.167 358.574,390.167 358.899 M387.807 362.439 C 387.807 362.763,388.073 363.029,388.397 363.029 C 388.722 363.029,388.987 362.763,388.987 362.439 C 388.987 362.114,388.722 361.849,388.397 361.849 C 388.073 361.849,387.807 362.114,387.807 362.439 M375.615 376.159 C 375.615 376.458,375.219 376.806,374.736 376.932 C 374.093 377.101,373.975 377.279,374.295 377.599 C 374.615 377.919,374.996 377.771,375.721 377.045 C 376.643 376.123,376.722 375.615,375.942 375.615 C 375.762 375.615,375.615 375.859,375.615 376.159 M369.715 380.728 C 369.715 381.243,369.906 381.416,370.305 381.263 C 370.629 381.139,370.895 380.898,370.895 380.728 C 370.895 380.558,370.629 380.317,370.305 380.192 C 369.906 380.039,369.715 380.212,369.715 380.728 M363.905 383.948 C 364.148 384.677,364.995 384.798,364.995 384.104 C 364.995 383.761,364.715 383.481,364.372 383.481 C 364.030 383.481,363.820 383.691,363.905 383.948 M361.455 385.012 C 361.455 385.633,362.563 385.811,362.787 385.226 C 362.930 384.853,362.741 384.661,362.230 384.661 C 361.804 384.661,361.455 384.819,361.455 385.012 M358.309 386.365 C 358.309 386.654,358.574 386.890,358.899 386.890 C 359.223 386.890,359.489 386.654,359.489 386.365 C 359.489 386.077,359.223 385.841,358.899 385.841 C 358.574 385.841,358.309 386.077,358.309 386.365 M355.556 387.611 C 355.825 387.935,356.289 388.201,356.587 388.201 C 356.885 388.201,357.129 387.935,357.129 387.611 C 357.129 387.236,356.752 387.021,356.097 387.021 C 355.225 387.021,355.141 387.112,355.556 387.611 M351.502 388.452 C 351.063 388.891,351.636 389.381,352.587 389.381 C 353.092 389.381,353.607 389.115,353.731 388.791 C 353.963 388.186,352.057 387.897,351.502 388.452 M346.607 389.871 C 346.820 390.510,348.947 390.511,349.162 389.872 C 349.275 389.538,348.866 389.381,347.886 389.381 C 346.909 389.381,346.497 389.539,346.607 389.871 M293.281 390.823 C 293.137 390.967,293.019 391.188,293.019 391.314 C 293.019 391.778,341.947 391.465,342.102 391.001 C 342.264 390.514,293.767 390.337,293.281 390.823 M71.526 391.642 C 46.985 391.723,40.160 391.851,40.013 392.234 C 39.734 392.966,164.528 393.241,165.409 392.510 C 166.915 391.260,172.371 391.310,71.526 391.642 " stroke="none" fill="#fbfbfb" fill-rule="evenodd"></path><path id="path1" d="M56.538 2.458 C 56.419 2.813,55.428 2.917,52.966 2.833 C 50.102 2.735,49.558 2.813,49.558 3.325 C 49.558 4.009,49.274 4.076,46.903 3.951 C 45.625 3.883,45.231 4.004,45.231 4.465 C 45.231 4.893,44.746 5.103,43.559 5.189 C 42.480 5.267,41.923 5.484,41.986 5.801 C 42.055 6.144,41.472 6.293,40.070 6.293 C 38.324 6.293,38.120 6.372,38.545 6.883 C 38.966 7.391,38.811 7.473,37.425 7.473 C 36.157 7.473,35.864 7.598,36.043 8.063 C 36.214 8.509,35.972 8.653,35.047 8.653 C 34.223 8.653,33.825 8.845,33.825 9.243 C 33.825 9.636,33.432 9.833,32.645 9.833 C 31.858 9.833,31.465 10.029,31.465 10.423 C 31.465 10.747,31.200 11.013,30.875 11.013 C 30.551 11.013,30.285 11.278,30.285 11.603 C 30.285 11.996,29.892 12.193,29.105 12.193 C 28.319 12.193,27.925 12.389,27.925 12.783 C 27.925 13.107,27.660 13.373,27.335 13.373 C 27.011 13.373,26.745 13.650,26.745 13.989 C 26.745 14.435,26.518 14.534,25.924 14.345 C 25.097 14.082,23.599 15.219,23.599 16.109 C 23.599 16.335,23.333 16.519,23.009 16.519 C 22.684 16.519,22.419 16.785,22.419 17.109 C 22.419 17.434,22.153 17.699,21.829 17.699 C 21.504 17.699,21.239 17.965,21.239 18.289 C 21.239 18.614,20.973 18.879,20.649 18.879 C 20.324 18.879,20.059 19.145,20.059 19.469 C 20.059 19.794,19.794 20.059,19.469 20.059 C 19.145 20.059,18.879 20.324,18.879 20.649 C 18.879 20.973,18.614 21.239,18.289 21.239 C 17.965 21.239,17.699 21.504,17.699 21.829 C 17.699 22.153,17.434 22.419,17.109 22.419 C 16.785 22.419,16.519 22.596,16.519 22.812 C 16.519 23.659,14.874 24.905,14.512 24.334 C 14.261 23.937,14.170 24.029,14.165 24.680 C 14.162 25.167,13.982 25.565,13.766 25.565 C 13.550 25.565,13.373 25.812,13.373 26.113 C 13.373 26.415,13.107 26.763,12.783 26.888 C 12.458 27.012,12.193 27.562,12.193 28.110 C 12.193 28.732,11.972 29.105,11.603 29.105 C 11.278 29.105,11.013 29.371,11.013 29.695 C 11.013 30.020,10.747 30.285,10.423 30.285 C 10.029 30.285,9.833 30.678,9.833 31.465 C 9.833 32.252,9.636 32.645,9.243 32.645 C 8.696 32.645,8.469 33.327,8.624 34.513 C 8.659 34.784,8.414 35.005,8.080 35.005 C 7.495 35.005,7.308 35.438,7.444 36.480 C 7.541 37.233,6.771 37.064,6.544 36.283 C 6.379 35.715,6.347 35.732,6.364 36.382 C 6.401 37.861,6.293 38.151,5.703 38.151 C 5.266 38.151,5.113 38.610,5.113 39.921 C 5.113 41.270,4.966 41.691,4.493 41.691 C 4.062 41.691,3.896 42.020,3.945 42.773 C 4.078 44.788,4.002 44.991,3.321 44.426 C 2.778 43.975,2.719 44.156,2.804 46.025 C 2.866 47.378,2.733 48.188,2.434 48.287 C 2.143 48.384,1.967 49.324,1.967 50.770 C 1.967 52.577,1.835 53.097,1.377 53.097 C 0.882 53.097,0.787 53.928,0.787 58.210 C 0.787 61.357,0.635 63.324,0.393 63.324 C 0.157 63.324,0.000 64.897,0.000 67.257 C 0.000 69.617,0.157 71.190,0.393 71.190 C 0.655 71.190,0.787 108.686,0.787 182.891 C 0.787 281.918,0.854 294.592,1.377 294.592 C 1.898 294.592,1.967 300.317,1.967 343.754 L 1.967 392.915 52.016 392.822 C 87.318 392.756,92.938 392.698,71.091 392.625 C 54.056 392.569,40.118 392.374,40.118 392.192 C 40.118 391.658,116.933 391.407,208.013 391.643 C 286.871 391.848,292.748 391.817,293.090 391.206 C 293.427 390.603,295.470 390.550,317.918 390.561 C 331.372 390.567,343.392 390.569,344.629 390.566 C 346.465 390.562,346.836 390.452,346.652 389.971 C 346.464 389.483,346.876 389.381,349.024 389.381 C 350.893 389.381,351.595 389.243,351.524 388.889 C 351.456 388.551,352.142 388.360,353.718 388.278 C 355.668 388.177,355.940 388.074,355.538 387.590 C 355.139 387.109,355.317 387.021,356.687 387.021 C 357.866 387.021,358.309 386.860,358.309 386.431 C 358.309 385.985,358.814 385.833,360.374 385.810 C 361.509 385.793,362.217 385.689,361.947 385.580 C 360.979 385.189,361.480 384.661,362.820 384.661 C 363.871 384.661,364.132 384.525,363.957 384.071 C 363.782 383.614,364.050 383.481,365.150 383.481 C 365.930 383.481,366.568 383.291,366.568 383.059 C 366.568 382.301,367.654 381.454,367.913 382.009 C 368.095 382.397,368.189 382.396,368.371 382.006 C 368.497 381.735,368.851 381.514,369.158 381.514 C 369.464 381.514,369.715 381.191,369.715 380.796 C 369.715 380.221,369.951 380.112,370.895 380.250 C 371.790 380.382,372.075 380.270,372.075 379.789 C 372.075 379.430,372.396 379.154,372.813 379.154 C 373.717 379.154,374.601 378.169,374.232 377.572 C 374.076 377.320,374.311 377.044,374.788 376.919 C 375.243 376.800,375.615 376.450,375.615 376.141 C 375.615 375.833,375.836 375.609,376.106 375.644 C 377.292 375.798,377.974 375.572,377.974 375.025 C 377.974 374.700,378.151 374.435,378.368 374.435 C 378.584 374.435,378.761 374.169,378.761 373.845 C 378.761 373.520,379.027 373.255,379.351 373.255 C 379.676 373.255,379.941 372.989,379.941 372.665 C 379.941 372.340,380.206 372.075,380.531 372.075 C 380.855 372.075,381.121 371.809,381.121 371.485 C 381.121 371.160,381.386 370.895,381.711 370.895 C 382.035 370.895,382.301 370.718,382.301 370.501 C 382.301 370.285,382.566 370.108,382.891 370.108 C 383.215 370.108,383.481 369.906,383.481 369.660 C 383.481 369.413,383.791 368.970,384.169 368.676 C 384.825 368.165,384.825 368.151,384.169 368.379 C 383.791 368.511,383.481 368.435,383.481 368.210 C 383.481 367.985,383.968 367.745,384.562 367.676 C 385.412 367.578,385.671 367.320,385.769 366.470 C 385.840 365.851,386.134 365.388,386.457 365.388 C 386.828 365.388,387.025 364.952,387.033 364.110 C 387.045 362.877,387.067 362.860,387.661 363.618 C 388.247 364.367,388.264 364.343,388.011 363.127 C 387.800 362.112,387.873 361.849,388.366 361.849 C 388.794 361.849,388.987 361.482,388.987 360.669 C 388.987 359.882,389.184 359.489,389.577 359.489 C 389.902 359.489,390.167 359.223,390.167 358.899 C 390.167 358.184,390.810 358.116,391.087 358.800 C 391.196 359.071,391.299 358.540,391.316 357.620 C 391.339 356.411,391.510 355.949,391.937 355.949 C 392.330 355.949,392.527 355.556,392.527 354.769 C 392.527 353.581,393.078 353.168,393.446 354.081 C 393.556 354.351,393.659 353.643,393.676 352.507 C 393.699 350.948,393.851 350.442,394.297 350.442 C 394.690 350.442,394.887 350.049,394.887 349.263 C 394.887 348.476,395.084 348.083,395.477 348.083 C 395.930 348.083,396.067 347.580,396.067 345.919 C 396.067 344.259,396.204 343.756,396.657 343.756 C 397.120 343.756,397.247 343.211,397.247 341.212 C 397.247 339.338,397.376 338.717,397.738 338.856 C 398.131 339.007,398.233 312.506,398.244 207.182 C 398.252 134.658,398.206 87.753,398.143 102.950 C 398.068 120.906,397.891 130.580,397.637 130.580 C 397.380 130.580,397.247 108.593,397.247 66.273 L 397.247 1.967 226.975 1.967 C 91.107 1.967,56.669 2.066,56.538 2.458 M218.155 35.595 C 218.686 35.993,225.198 48.717,226.911 52.704 C 227.422 53.894,228.179 55.664,228.592 56.637 C 229.006 57.611,229.502 58.761,229.695 59.194 C 230.112 60.129,231.573 63.587,232.022 64.700 C 232.197 65.133,232.629 66.156,232.984 66.975 C 233.338 67.794,233.628 68.652,233.628 68.882 C 233.628 69.112,233.871 69.859,234.168 70.540 C 234.748 71.871,237.864 81.236,238.377 83.186 C 238.547 83.835,238.978 85.339,239.334 86.529 C 241.056 92.279,243.122 102.035,243.833 107.768 C 244.034 109.390,244.383 111.957,244.609 113.471 C 245.809 121.528,244.828 137.564,242.637 145.723 C 242.172 147.453,241.705 149.358,241.598 149.956 C 241.491 150.553,241.247 151.139,241.056 151.257 C 240.865 151.375,240.707 151.771,240.706 152.137 C 240.704 152.503,240.476 153.245,240.199 153.786 C 239.921 154.326,239.368 155.654,238.969 156.735 C 236.558 163.273,230.505 173.046,224.602 179.932 C 217.494 188.224,206.422 197.599,194.297 205.594 C 186.762 210.562,184.529 211.996,184.325 211.996 C 184.207 211.996,183.323 212.527,182.362 213.176 C 181.400 213.825,180.515 214.356,180.395 214.356 C 180.275 214.356,179.390 214.887,178.429 215.536 C 177.467 216.185,176.570 216.716,176.435 216.716 C 176.299 216.716,175.440 217.198,174.525 217.787 C 173.610 218.377,172.507 219.054,172.075 219.293 C 171.642 219.532,170.049 220.408,168.535 221.241 C 167.021 222.074,164.672 223.432,163.317 224.259 C 161.961 225.086,160.783 225.762,160.698 225.762 C 160.614 225.762,158.757 226.824,156.571 228.122 C 154.385 229.420,152.525 230.482,152.437 230.482 C 152.349 230.482,150.891 231.304,149.197 232.308 C 147.502 233.313,145.497 234.484,144.739 234.910 C 143.982 235.336,142.160 236.416,140.689 237.311 C 139.219 238.206,137.715 239.115,137.346 239.331 C 136.545 239.802,132.357 242.312,131.431 242.877 C 129.524 244.041,127.221 245.661,127.106 245.919 C 127.034 246.082,126.819 246.214,126.629 246.214 C 126.307 246.214,118.133 251.626,117.086 252.531 C 116.829 252.755,115.008 254.124,113.041 255.574 C 107.658 259.542,106.787 260.225,101.676 264.496 C 95.069 270.017,94.933 270.141,88.489 276.500 C 81.977 282.925,77.719 287.596,74.683 291.642 C 73.547 293.156,72.514 294.484,72.387 294.592 C 72.172 294.774,68.063 300.892,66.969 302.659 C 66.277 303.775,61.645 313.059,61.081 314.460 C 58.542 320.760,57.146 328.371,57.523 333.865 C 57.750 337.170,57.126 337.723,55.881 335.321 C 55.651 334.877,55.240 334.166,54.968 333.742 C 53.658 331.697,52.436 329.584,51.319 327.434 C 50.645 326.136,49.891 324.720,49.644 324.287 C 48.774 322.764,41.193 306.891,39.218 302.458 C 38.881 301.701,37.959 299.666,37.170 297.935 C 36.380 296.205,35.378 293.992,34.942 293.019 C 34.506 292.045,33.634 290.146,33.004 288.799 C 32.374 287.451,31.858 286.183,31.858 285.979 C 31.858 285.776,31.604 285.108,31.293 284.496 C 30.162 282.268,25.905 272.177,24.602 268.633 C 18.741 252.702,20.580 236.989,29.963 222.805 C 33.998 216.707,50.450 200.590,52.640 200.590 C 52.788 200.590,53.349 200.184,53.888 199.688 C 55.259 198.425,66.017 191.282,67.847 190.420 C 68.279 190.216,69.305 189.589,70.126 189.027 C 70.946 188.464,71.717 188.004,71.838 188.004 C 71.960 188.004,72.846 187.473,73.807 186.824 C 74.769 186.175,75.632 185.644,75.726 185.644 C 75.819 185.644,77.052 184.936,78.466 184.071 C 79.880 183.206,81.125 182.498,81.234 182.498 C 81.343 182.498,82.092 182.084,82.899 181.579 C 83.706 181.074,85.782 179.893,87.512 178.956 C 89.243 178.018,91.278 176.903,92.035 176.478 C 92.793 176.053,94.297 175.222,95.379 174.633 C 96.460 174.043,98.761 172.776,100.492 171.818 C 102.222 170.859,104.435 169.673,105.408 169.182 C 106.382 168.691,107.709 167.977,108.358 167.596 C 109.007 167.215,110.777 166.229,112.291 165.406 C 116.531 163.099,118.782 161.851,121.141 160.496 C 122.330 159.813,123.835 158.992,124.484 158.671 C 125.133 158.350,126.195 157.741,126.844 157.317 C 127.493 156.894,128.289 156.422,128.614 156.269 C 129.120 156.031,141.158 148.766,143.336 147.385 C 151.016 142.514,167.239 130.673,170.671 127.434 C 171.015 127.109,173.136 125.262,175.384 123.329 C 181.685 117.910,188.710 110.686,194.358 103.814 C 195.149 102.852,196.166 101.640,196.619 101.120 C 197.073 100.600,197.443 100.067,197.443 99.936 C 197.443 99.804,197.842 99.256,198.330 98.718 C 198.817 98.179,200.257 96.146,201.529 94.199 C 202.800 92.252,204.172 90.179,204.575 89.593 C 204.979 89.007,205.310 88.428,205.310 88.307 C 205.310 88.186,205.785 87.338,206.366 86.423 C 207.853 84.080,211.996 75.641,211.996 74.954 C 211.996 74.640,212.140 74.294,212.316 74.185 C 212.492 74.076,213.273 71.986,214.052 69.540 C 216.219 62.739,216.716 60.953,216.716 59.961 C 216.716 59.459,216.873 58.636,217.065 58.131 C 218.314 54.846,218.327 37.690,217.082 35.352 C 216.896 35.001,216.866 34.592,217.016 34.442 C 217.167 34.292,217.366 34.401,217.460 34.685 C 217.553 34.969,217.866 35.379,218.155 35.595 M290.290 116.491 C 291.606 118.928,297.656 131.193,298.114 132.350 C 298.285 132.783,298.870 134.110,299.413 135.300 C 299.957 136.490,300.790 138.437,301.263 139.626 C 301.737 140.816,302.357 142.321,302.642 142.970 C 303.860 145.746,305.605 150.559,305.605 151.141 C 305.605 151.488,305.762 151.870,305.953 151.988 C 306.145 152.107,306.427 152.869,306.579 153.683 C 306.731 154.497,306.979 155.339,307.131 155.556 C 307.282 155.772,307.728 157.011,308.120 158.309 C 308.513 159.607,309.059 161.377,309.333 162.242 C 309.821 163.781,310.693 166.963,311.703 170.895 C 312.737 174.917,314.529 184.156,314.832 187.021 C 314.946 188.102,315.212 190.226,315.423 191.740 C 315.932 195.409,315.912 211.872,315.393 215.339 C 315.167 216.853,314.849 218.977,314.687 220.059 C 314.231 223.110,312.691 228.578,311.032 233.038 C 309.156 238.085,308.221 240.123,305.619 244.838 C 304.384 247.074,300.940 252.478,300.481 252.901 C 300.363 253.009,299.248 254.425,298.002 256.047 C 294.437 260.691,288.175 267.157,283.218 271.311 C 280.717 273.408,278.329 275.429,277.913 275.803 C 277.496 276.177,276.433 276.974,275.549 277.573 C 274.666 278.172,273.725 278.868,273.458 279.120 C 272.994 279.557,268.105 282.946,266.732 283.782 C 265.377 284.607,262.529 286.530,262.340 286.748 C 262.232 286.872,260.575 287.936,258.658 289.111 C 256.740 290.287,254.705 291.556,254.135 291.931 C 253.564 292.307,252.743 292.776,252.311 292.973 C 251.878 293.171,250.853 293.793,250.032 294.356 C 249.211 294.918,248.462 295.379,248.367 295.379 C 248.272 295.379,247.071 296.066,245.699 296.906 C 244.326 297.747,241.977 299.103,240.480 299.920 C 236.555 302.062,235.926 302.418,234.612 303.240 C 233.963 303.646,232.724 304.364,231.858 304.835 C 228.087 306.890,225.866 308.146,224.582 308.950 C 223.825 309.424,221.967 310.478,220.452 311.293 C 218.938 312.108,217.611 312.891,217.502 313.032 C 217.394 313.174,216.863 313.502,216.323 313.761 C 214.317 314.720,202.160 322.166,197.705 325.163 C 196.010 326.304,194.552 327.237,194.466 327.237 C 194.379 327.237,192.908 328.255,191.196 329.499 C 189.485 330.742,187.696 332.026,187.221 332.350 C 186.746 332.675,185.993 333.250,185.547 333.628 C 185.102 334.007,184.630 334.317,184.498 334.317 C 184.367 334.317,183.819 334.721,183.280 335.215 C 182.742 335.710,180.796 337.247,178.958 338.632 C 176.038 340.832,171.670 344.337,171.091 344.946 C 170.983 345.060,169.479 346.364,167.748 347.844 C 160.221 354.280,150.462 364.485,145.329 371.288 C 144.268 372.694,143.299 373.933,143.176 374.041 C 142.626 374.524,138.053 381.493,138.053 381.848 C 138.053 382.066,137.831 382.479,137.559 382.764 C 137.287 383.050,136.470 384.435,135.743 385.841 C 134.009 389.197,134.820 388.975,124.287 388.976 C 113.284 388.977,113.539 389.026,112.471 386.684 C 112.013 385.679,111.317 384.149,110.924 383.284 C 110.531 382.419,109.723 380.649,109.128 379.351 C 108.533 378.053,107.640 376.106,107.144 375.025 C 104.904 370.136,103.700 367.407,102.981 365.585 C 102.554 364.503,102.041 363.450,101.840 363.245 C 101.639 363.039,101.475 362.637,101.475 362.352 C 101.475 362.066,100.961 360.730,100.333 359.382 C 91.959 341.419,90.179 328.499,94.251 315.241 C 95.382 311.559,97.370 307.406,99.691 303.875 C 100.672 302.383,101.475 301.053,101.475 300.921 C 101.475 300.789,101.873 300.238,102.360 299.699 C 102.847 299.159,104.537 297.181,106.116 295.305 C 108.582 292.374,111.087 289.957,116.649 285.141 C 118.199 283.798,125.194 278.539,127.630 276.885 C 128.712 276.150,129.774 275.402,129.990 275.223 C 131.323 274.117,148.489 263.520,148.947 263.520 C 149.064 263.520,150.156 262.918,151.374 262.183 C 152.592 261.447,154.430 260.385,155.457 259.823 C 156.485 259.261,158.166 258.334,159.194 257.764 C 160.221 257.194,162.212 256.110,163.618 255.355 C 165.025 254.599,166.352 253.845,166.568 253.680 C 166.785 253.514,168.643 252.497,170.698 251.421 C 174.418 249.473,177.071 248.043,180.629 246.070 C 181.657 245.501,183.338 244.568,184.366 243.998 C 185.393 243.428,187.367 242.348,188.751 241.598 C 190.136 240.847,191.817 239.899,192.488 239.490 C 193.158 239.082,193.972 238.625,194.297 238.474 C 194.621 238.323,195.693 237.727,196.677 237.150 C 197.662 236.572,199.255 235.661,200.217 235.123 C 201.179 234.586,203.969 232.924,206.416 231.429 C 208.864 229.935,211.165 228.531,211.529 228.311 C 213.649 227.028,224.283 220.051,225.172 219.360 C 225.388 219.192,227.782 217.422,230.492 215.427 C 234.702 212.327,240.213 208.045,241.740 206.686 C 241.983 206.470,243.306 205.320,244.678 204.130 C 252.380 197.455,258.863 190.973,263.717 185.093 C 264.582 184.045,265.619 182.811,266.022 182.351 C 282.358 163.675,291.629 137.244,288.636 117.884 C 287.960 113.513,288.457 113.095,290.290 116.491 M349.660 219.643 C 352.254 224.930,354.376 229.354,354.376 229.474 C 354.376 229.595,354.881 230.800,355.498 232.152 C 358.495 238.718,363.055 251.058,364.983 257.817 C 367.435 266.417,368.835 271.991,369.328 275.123 C 370.015 279.492,370.564 282.706,370.972 284.759 C 372.377 291.823,371.723 312.321,369.850 319.961 C 367.067 331.307,360.278 345.398,354.499 351.825 C 354.106 352.261,352.914 353.677,351.849 354.972 C 344.290 364.160,328.468 377.075,314.741 385.263 C 314.367 385.486,312.999 386.371,311.701 387.229 L 309.341 388.791 238.545 388.903 C 170.686 389.012,165.192 388.962,165.192 388.239 C 165.192 388.063,166.807 386.523,168.780 384.815 C 170.754 383.108,172.568 381.527,172.812 381.303 C 176.250 378.140,187.515 370.284,195.674 365.361 C 197.620 364.186,199.272 363.092,199.344 362.930 C 199.417 362.768,199.623 362.635,199.804 362.635 C 199.984 362.635,201.429 361.869,203.016 360.931 C 204.602 359.994,206.785 358.733,207.866 358.127 C 208.948 357.522,211.426 356.134,213.373 355.042 C 215.320 353.951,217.679 352.644,218.615 352.138 C 219.551 351.632,221.321 350.665,222.548 349.989 C 223.775 349.313,225.532 348.346,226.452 347.839 C 227.372 347.332,229.849 346.002,231.958 344.883 C 234.066 343.764,235.969 342.722,236.185 342.566 C 236.401 342.410,237.729 341.665,239.135 340.909 C 245.320 337.588,246.727 336.802,254.671 332.236 C 257.699 330.496,260.619 328.826,261.160 328.525 C 261.701 328.225,262.621 327.680,263.204 327.313 C 263.788 326.947,265.823 325.684,267.727 324.506 C 269.632 323.328,271.278 322.266,271.386 322.146 C 271.684 321.815,275.318 319.371,275.513 319.371 C 275.606 319.371,277.150 318.344,278.943 317.088 C 310.609 294.917,331.307 271.281,339.802 247.591 C 340.500 245.644,341.233 243.744,341.430 243.368 C 341.628 242.993,341.790 242.438,341.790 242.135 C 341.790 241.832,342.038 240.724,342.341 239.672 C 344.196 233.230,344.346 231.807,344.342 220.747 C 344.339 214.853,344.474 210.029,344.641 210.029 C 344.808 210.029,347.067 214.355,349.660 219.643 M399.393 315.044 C 399.393 323.805,399.445 327.389,399.508 323.009 C 399.571 318.628,399.571 311.460,399.508 307.080 C 399.445 302.699,399.393 306.283,399.393 315.044 M304.523 391.642 C 310.742 391.703,320.919 391.703,327.139 391.642 C 333.358 391.581,328.269 391.531,315.831 391.531 C 303.392 391.531,298.304 391.581,304.523 391.642 " stroke="none" fill="#6cb434" fill-rule="evenodd"></path></g></svg>